<svg id="Layer_1" data-name="Layer 1" xmlns="http://www.w3.org/2000/svg" xmlns:xlink="http://www.w3.org/1999/xlink" viewBox="0 0 512 512"><defs><style>.cls-1{fill:url(#linear-gradient);}</style><linearGradient id="linear-gradient" x1="256" y1="15.99" x2="256" y2="496" gradientTransform="matrix(1, 0, 0, -1, 0, 512)" gradientUnits="userSpaceOnUse"><stop offset="0" stop-color="#12c2e9"/><stop offset="0.5" stop-color="#c471ed"/><stop offset="1" stop-color="#f64f59"/></linearGradient></defs><path class="cls-1" d="M176,384a80,80,0,1,0,80-80A80,80,0,0,0,176,384Zm96.41,10.53,7.43,22.3L261,401.75a8,8,0,0,0-10,0l-18.84,15.08,7.43-22.3a8,8,0,0,0-2.59-8.78L214.81,368H240a8,8,0,0,0,7.59-5.47L256,337.3l8.41,25.23A8,8,0,0,0,272,368h25.19L275,385.75A8,8,0,0,0,272.41,394.53Zm-27.86-73.48L234.23,352H200.61a64.13,64.13,0,0,1,43.94-30.95ZM192,384a64,64,0,0,1,1.28-12.73l29.37,23.5-11.59,34.75A63.8,63.8,0,0,1,192,384Zm35.32,57.19L256,418.24l28.68,22.95a63.8,63.8,0,0,1-57.36,0Zm73.62-11.67-11.59-34.76,29.37-23.5a63.91,63.91,0,0,1-17.78,58.25ZM311.39,352H277.77l-10.32-30.95A64.13,64.13,0,0,1,311.39,352ZM295.84,219.47l69.82-69.81A8,8,0,0,0,368,144V24a8,8,0,0,0-8-8H152a8,8,0,0,0-8,8V144a8,8,0,0,0,2.34,5.66l69.82,69.81A40.08,40.08,0,0,0,248,255.2v17.09a112,112,0,1,0,16,0V255.2A40.08,40.08,0,0,0,295.84,219.47ZM227.31,208,224,204.69V32h64V204.69L284.69,208ZM208,188.69l-16-16V32h16ZM304,32h16V172.69l-16,16Zm48,108.69-16,16V32h16ZM160,32h16V156.69l-16-16Zm73.38,192h45.24a24,24,0,0,1-45.24,0ZM352,384a96,96,0,1,1-96-96A96,96,0,0,1,352,384Z"/></svg>