<svg id="Layer_1" data-name="Layer 1" xmlns="http://www.w3.org/2000/svg" xmlns:xlink="http://www.w3.org/1999/xlink" viewBox="0 0 512 512"><defs><style>.cls-1{fill:url(#linear-gradient);}</style><linearGradient id="linear-gradient" x1="256" y1="483.4" x2="256" y2="64.36" gradientUnits="userSpaceOnUse"><stop offset="0" stop-color="#27c1e6"/><stop offset="0.5" stop-color="#c275e9"/><stop offset="1" stop-color="#f2515d"/></linearGradient></defs><path class="cls-1" d="M128,112a24,24,0,1,0-24-24A24,24,0,0,0,128,112Zm0-32a8,8,0,1,1-8,8A8,8,0,0,1,128,80Zm64,32a24,24,0,1,0-24-24A24,24,0,0,0,192,112Zm0-32a8,8,0,1,1-8,8A8,8,0,0,1,192,80Zm64,32a24,24,0,1,0-24-24A24,24,0,0,0,256,112Zm0-32a8,8,0,1,1-8,8A8,8,0,0,1,256,80Zm48,32h96a8,8,0,0,0,8-8V72a8,8,0,0,0-8-8H304a8,8,0,0,0-8,8v32A8,8,0,0,0,304,112Zm8-32h80V96H312ZM489.87,408A24,24,0,0,0,472,368H440V40a8,8,0,0,0-8-8H80a8,8,0,0,0-8,8V256H40a24,24,0,0,0-17.87,40,24,24,0,0,0-3.78,26.35l-.16.15A8,8,0,0,0,16,328.44l8,144A8,8,0,0,0,32,480H472a24,24,0,0,0,17.87-40,24,24,0,0,0,0-32ZM32,312a8,8,0,0,1,8-8H152a8,8,0,0,1,0,16H40A8,8,0,0,1,32,312Zm147.59-2.71c4.73,5.36,11.19,12.71,23.61,12.71s18.88-7.35,23.61-12.71c4.33-4.93,6.63-7.29,11.59-7.29s7.26,2.36,11.59,7.29c4.72,5.36,11.19,12.71,23.6,12.71s18.89-7.35,23.61-12.71c4.33-4.93,6.63-7.29,11.6-7.29s7.27,2.36,11.6,7.29c3.31,3.75,7.48,8.47,13.94,11A80,80,0,0,1,176,305.46c1.08,1,2.22,2.31,3.55,3.83ZM332.4,298.71c-4.72-5.36-11.19-12.71-23.6-12.71s-18.88,7.35-23.61,12.71c-4.33,4.93-6.63,7.29-11.6,7.29s-7.26-2.36-11.59-7.29c-4.72-5.36-11.19-12.71-23.6-12.71s-18.88,7.35-23.6,12.71c-4.33,4.93-6.63,7.29-11.59,7.29s-7.27-2.36-11.6-7.29c-3.3-3.75-7.47-8.47-13.94-11A80,80,0,0,1,336,302.54c-1.09-1-2.23-2.31-3.57-3.83ZM256,400a96,96,0,1,0-86.88-136.8,24,24,0,0,0-14.4-7,112,112,0,1,1,18.43,123.21l1.37-24.65A96,96,0,0,0,256,400Zm-84,.55A127.85,127.85,0,0,0,338.21,402a23.89,23.89,0,0,0,3.92,6,24,24,0,0,0,0,32,24,24,0,0,0-4.75,24H168.46ZM352,424a8,8,0,0,1,8-8H472a8,8,0,0,1,0,16H360A8,8,0,0,1,352,424Zm128-32a8,8,0,0,1-8,8H360a8,8,0,0,1,0-16H472A8,8,0,0,1,480,392ZM424,48v80H88V48ZM88,144H424V368H366.82a128,128,0,0,0-221.7-128,126.32,126.32,0,0,0-7.8,16H88ZM40,272H152a8,8,0,0,1,0,16H40a8,8,0,0,1,0-16Zm-.43,192L32.46,336H159.54l-7.11,128ZM472,464H360a8,8,0,0,1,0-16H472a8,8,0,0,1,0,16Z"/></svg>