<svg id="Layer_1" data-name="Layer 1" xmlns="http://www.w3.org/2000/svg" xmlns:xlink="http://www.w3.org/1999/xlink" viewBox="0 0 512 512"><defs><style>.cls-1{fill:url(#linear-gradient);}</style><linearGradient id="linear-gradient" x1="256" y1="8" x2="256" y2="504" gradientTransform="matrix(1, 0, 0, -1, 0, 512)" gradientUnits="userSpaceOnUse"><stop offset="0" stop-color="#27c1e6"/><stop offset="0.5" stop-color="#c275e9"/><stop offset="1" stop-color="#f2515d"/></linearGradient></defs><path class="cls-1" d="M394.73,136.48,344,118V96a8,8,0,0,0-5-7.43l-36.2-14.48-7-28A8,8,0,0,0,288,40h-8V16a8,8,0,0,0-8-8H240a8,8,0,0,0-8,8V40h-8a8,8,0,0,0-7.76,6.06l-7,28L173,88.57A8,8,0,0,0,168,96v22l-50.73,18.45a8,8,0,0,0-5,9.56l39,148.38C143.31,306.73,120,352.2,120,464a8,8,0,0,0,8,8h96v24a8,8,0,0,0,8,8h48a8,8,0,0,0,8-8V472h96a8,8,0,0,0,8-8c0-111.8-23.31-157.27-31.31-169.58L399.74,146A8,8,0,0,0,394.73,136.48ZM328,101.42V104a8,8,0,0,0,0,16v16a8,8,0,0,0,0,16v16a8,8,0,0,0,0,16v16a8,8,0,0,0,0,16v16a8,8,0,0,0,0,16v16a8,8,0,0,0,0,16v16a8,8,0,0,0,0,16v16a8,8,0,0,0,0,16v16H312V112a7.93,7.93,0,0,0-.24-1.94l-4.2-16.82ZM248,24h16V40H248ZM184,392h16v16H184Zm0-290.58,20.44-8.18-4.2,16.82A7.93,7.93,0,0,0,200,112V376H184V344a8,8,0,0,0,0-16V312a8,8,0,0,0,0-16V280a8,8,0,0,0,0-16V248a8,8,0,0,0,0-16V216a8,8,0,0,0,0-16V184a8,8,0,0,0,0-16V152a8,8,0,0,0,0-16V120a8,8,0,0,0,0-16ZM272,488H240V472h32Zm104-32H136c1.24-118.42,29.79-154.5,30-154.79a8,8,0,0,0,1.67-7.25L129.59,149l38.41-14V416a8,8,0,0,0,8,8h32a8,8,0,0,0,8-8V113l14.25-57h51.5L296,113V368a8,8,0,0,0,8,8h32a8,8,0,0,0,8-8V296.08a7.76,7.76,0,0,0,1.87,5.06C346.17,301.5,374.72,337.58,376,456Zm-31.7-162a8.09,8.09,0,0,0-.27,1.82V135.06l38.41,14Z"/></svg>