<?xml version="1.0" encoding="UTF-8"?>
<svg xmlns="http://www.w3.org/2000/svg" xmlns:xlink="http://www.w3.org/1999/xlink" width="70px" height="56px" viewBox="0 0 70 56" version="1.1">
<g id="surface1">
<path style=" stroke:none;fill-rule:nonzero;fill:rgb(0%,0%,0%);fill-opacity:1;" d="M 23.164062 0 C 24.019531 0 24.730469 0.625 24.992188 1.445312 C 26.335938 5.675781 30.308594 8.75 35 8.75 C 39.691406 8.75 43.664062 5.675781 45.007812 1.445312 C 45.269531 0.625 45.980469 0 46.835938 0 L 48.210938 0 C 50.671875 0 53.046875 0.863281 54.9375 2.4375 L 68.742188 13.933594 C 69.464844 14.535156 69.914062 15.410156 69.988281 16.351562 C 70.066406 17.292969 69.757812 18.222656 69.136719 18.933594 L 63.011719 25.933594 C 61.765625 27.367188 59.597656 27.53125 58.132812 26.316406 L 52.5 21.625 L 52.5 49 C 52.5 52.859375 49.359375 56 45.5 56 L 24.5 56 C 20.640625 56 17.5 52.859375 17.5 49 L 17.5 21.625 L 11.867188 26.316406 C 10.414062 27.53125 8.246094 27.367188 6.988281 25.933594 L 0.863281 18.933594 C 0.242188 18.222656 -0.0664062 17.292969 0.0117188 16.351562 C 0.0859375 15.410156 0.535156 14.535156 1.257812 13.933594 L 15.0625 2.4375 C 16.953125 0.863281 19.328125 0 21.789062 0 Z M 23.164062 0 "/>
</g>
</svg>
